name C:\Users\u0101727\Documents\MyRepositories\upper-imu-dc\Results\main_tracking\Case_50\kinematics_filtered.mot
datacolumns 10
datarows 47
range 4.88000000 5.34000000
endheader 
time	clav_prot	clav_elev	scapula_abduction	scapula_elevation	scapula_upward_rot	scapula_winging	plane_elv	shoulder_elv	axial_rot	
          4.88000000	        -48.11700229	          9.86043538	        -26.06872051	         -2.60963562	         57.09128351	        -16.35799861	         18.95655512	         76.92381586	        -14.72628082	
          4.89000000	        -48.07751418	          9.84082807	        -26.39786417	         -2.60367481	         56.57648492	        -16.29951352	         18.99400829	         76.59039226	        -15.05654954	
          4.90000000	        -48.03495349	          9.81990820	        -26.71537861	         -2.59721754	         56.07062033	        -16.23677212	         19.01307028	         76.23582208	        -15.35719291	
          4.91000000	        -47.98932588	          9.79775413	        -27.02058055	         -2.59031896	         55.57463652	        -16.16997629	         19.01270994	         75.85901760	        -15.62407988	
          4.92000000	        -47.94062395	          9.77439809	        -27.31284402	         -2.58306760	         55.08935744	        -16.09931056	         18.99198786	         75.45916855	        -15.85463502	
          4.93000000	        -47.88883864	          9.74982150	        -27.59163307	         -2.57558630	         54.61546024	        -16.02494421	         18.95008902	         75.03577088	        -16.04795747	
          4.94000000	        -47.83397384	          9.72395461	        -27.85653892	         -2.56803021	         54.15345346	        -15.94703672	         18.88636452	         74.58864514	        -16.20485115	
          4.95000000	        -47.77606293	          9.69668050	        -28.10731919	         -2.56058218	         53.70365799	        -15.86574566	         18.80037997	         74.11794414	        -16.32776847	
          4.96000000	        -47.71518583	          9.66784289	        -28.34393630	         -2.55344549	         53.26619209	        -15.78123611	         18.69196723	         73.62415053	        -16.42067459	
          4.97000000	        -47.65148504	          9.63725684	        -28.56659179	         -2.54683492	         52.84096096	        -15.69369040	         18.56127524	         73.10806478	        -16.48884379	
          4.98000000	        -47.58517903	          9.60472131	        -28.77575357	         -2.54096672	         52.42765174	        -15.60331676	         18.40881571	         72.57078482	        -16.53860085	
          4.99000000	        -47.51657167	          9.57003209	        -28.97217347	         -2.53604839	         52.02573418	        -15.51035593	         18.23549966	         72.01367846	        -16.57702215	
          5.00000000	        -47.44605677	          9.53299428	        -29.15689303	         -2.53226902	         51.63446736	        -15.41508475	         18.04266096	         71.43834972	        -16.61161096	
          5.01000000	        -47.37411709	          9.49343342	        -29.33123640	         -2.52979063	         51.25291264	        -15.31781646	         17.83206418	         70.84660028	        -16.64996270	
          5.02000000	        -47.30131783	          9.45120514	        -29.49678980	         -2.52874095	         50.87995308	        -15.21889762	         17.60589433	         70.24038708	        -16.69943642	
          5.03000000	        -47.22829457	          9.40620332	        -29.65536768	         -2.52920731	         50.51431952	        -15.11870202	         17.36672718	         69.62177707	        -16.76684995	
          5.04000000	        -47.15573636	          9.35836717	        -29.80896646	         -2.53123189	         50.15462333	        -15.01762225	         17.11747973	         68.99290048	        -16.85821617	
          5.05000000	        -47.08436458	          9.30768755	        -29.95970720	         -2.53480790	         49.79939536	        -14.91605949	         16.86134118	         68.35590388	        -16.97853675	
          5.06000000	        -47.01490835	          9.25421237	        -30.10976901	         -2.53987685	         49.44713021	        -14.81441223	         16.60168633	         67.71290501	        -17.13166666	
          5.07000000	        -46.94807762	          9.19805099	        -30.26131588	         -2.54632716	         49.09633435	        -14.71306436	         16.34197391	         67.06595118	        -17.32025742	
          5.08000000	        -46.88453493	          9.13937652	        -30.41641976	         -2.55399450	         48.74557562	        -14.61237292	         16.08563397	         66.41698333	        -17.54578032	
          5.09000000	        -46.82486718	          9.07842545	        -30.57698341	         -2.56266439	         48.39353186	        -14.51265588	         15.83594916	         65.76780762	        -17.80862252	
          5.10000000	        -46.76955869	          9.01549337	        -30.74466665	         -2.57207765	         48.03903565	        -14.41418011	         15.59593575	         65.12007558	        -18.10824140	
          5.11000000	        -46.71896690	          8.95092646	        -30.92081990	         -2.58193874	         47.68111279	        -14.31714990	         15.36823076	         64.47527324	        -18.44335503	
          5.12000000	        -46.67330223	          8.88510860	        -31.10642841	         -2.59192712	         47.31901229	        -14.22169657	         15.15499173	         63.83471868	        -18.81214275	
          5.13000000	        -46.63261309	          8.81844494	        -31.30207040	         -2.60171079	         46.95222657	        -14.12786980	         14.95781565	         63.19956639	        -19.21242836	
          5.14000000	        -46.59677735	          8.75134307	        -31.50789180	         -2.61096130	         46.58050099	        -14.03563139	         14.77768264	         62.57081614	        -19.64182181	
          5.15000000	        -46.56550108	          8.68419361	        -31.72359933	         -2.61936887	         46.20383261	        -13.94485247	         14.61492887	         61.94932382	        -20.09780214	
          5.16000000	        -46.53832493	          8.61735188	        -31.94847327	         -2.62665637	         45.82245835	        -13.85531460	         14.46925168	         61.33581168	        -20.57773439	
          5.17000000	        -46.51463847	          8.55112253	        -32.18139987	         -2.63259094	         45.43683320	        -13.76671533	         14.33974738	         60.73087628	        -21.07882492	
          5.18000000	        -46.49370185	          8.48574789	        -32.42092280	         -2.63699257	         45.04759910	        -13.67867824	         14.22498041	         60.13499319	        -21.59802973	
          5.19000000	        -46.47467415	          8.42140064	        -32.66531123	         -2.63973910	         44.65554564	        -13.59076676	         14.12307944	         59.54851892	        -22.13193857	
          5.20000000	        -46.45664669	          8.35818039	        -32.91264131	         -2.64076783	         44.26156393	        -13.50250098	         14.03185433	         58.97169113	        -22.67666144	
          5.21000000	        -46.43867947	          8.29611318	        -33.16088638	         -2.64007445	         43.86659547	        -13.41337597	         13.94892566	         58.40462935	        -23.22774369	
          5.22000000	        -46.41983849	          8.23515286	        -33.40800997	         -2.63770988	         43.47157869	        -13.32287997	         13.87185735	         57.84733825	        -23.78013168	
          5.23000000	        -46.39923121	          8.17518305	        -33.65205559	         -2.63377606	         43.07739622	        -13.23051101	         13.79828291	         57.29971535	        -24.32820317	
          5.24000000	        -46.37603788	          8.11601938	        -33.89122669	         -2.62842117	         42.68482633	        -13.13579057	         13.72601622	         56.76156448	        -24.86586714	
          5.25000000	        -46.34953654	          8.05741164	        -34.12395140	         -2.62183479	         42.29450236	        -13.03827361	         13.65313973	         56.23261515	        -25.38672783	
          5.26000000	        -46.31911995	          7.99904655	        -34.34892768	         -2.61424279	         41.90688312	        -12.93755451	         13.57806534	         55.71254710	        -25.88429905	
          5.27000000	        -46.28430392	          7.94055201	        -34.56514659	         -2.60590188	         41.52223682	        -12.83326940	         13.49956594	         55.20101830	        -26.35224856	
          5.28000000	        -46.24472664	          7.88150368	        -34.77189331	         -2.59709343	         41.14063933	        -12.72509526	         13.41677860	         54.69769408	        -26.78464958	
          5.29000000	        -46.20014001	          7.82143466	        -34.96872775	         -2.58811618	         40.76198672	        -12.61274690	         13.32918265	         54.20227487	        -27.17621677	
          5.30000000	        -46.15039403	          7.75984862	        -35.15544780	         -2.57927775	         40.38602023	        -12.49597253	         13.23655770	         53.71452010	        -27.52250759	
          5.31000000	        -46.09541616	          7.69623616	        -35.33203997	         -2.57088509	         40.01236109	        -12.37454895	         13.13892747	         53.23426641	        -27.82007490	
          5.32000000	        -46.03518738	          7.63009366	        -35.49862186	         -2.56323401	         39.64055200	        -12.24827683	         13.03649550	         52.76143898	        -28.06656299	
          5.33000000	        -45.96971684	          7.56094341	        -35.65538147	         -2.55659861	         39.27010161	        -12.11697678	         12.92957818	         52.29605557	        -28.26074416	
          5.34000000	        -45.89901707	          7.48835364	        -35.80251753	         -2.55122113	         38.90052885	        -11.98048610	         12.81853970	         51.83822364	        -28.40249814	
